<?xml version="1.0" encoding="utf-8"?>
<!-- Generator: Adobe Illustrator 25.4.1, SVG Export Plug-In . SVG Version: 6.00 Build 0)  -->
<svg version="1.1" id="Layer_1" xmlns="http://www.w3.org/2000/svg" xmlns:xlink="http://www.w3.org/1999/xlink" x="0px" y="0px"
	 viewBox="0 0 377.2 349.8" style="enable-background:new 0 0 377.2 349.8;" xml:space="preserve">
<g>
	<path style="fill:#231F20;" d="M362.5,138.8v-57H233.7l-19-8V0H113v128H0l65.3,63.1l13.8,35.8l22.9,10.2l-15.6,26.2h31.2l-31.4,52
		l93-49.6l22.4,48.1l87.4,36v-39.5v-3.1c-0.1-13.4-0.2-28.6,10.5-36.8l5-3.9c43.5-33.7,52.5-40.7,55-42.8l1.2-1l4.6-5.2l11.9-40.2
		L362.5,138.8z"/>
	<path style="fill:#FFFFFF;" d="M353.6,140.5V90.8H231.9l-26.1-11V9h-83.9v128H22l50.9,49.2l13.2,34.2l28.7,12.8l-12.7,21.3h54.7
		l-28,7.5l-18.2,30.2l70.5-37.8h3c7.1,0,13.7-0.3,19.8-0.8l47.8,38.5l-4.2-40.2c-12.9,1.4-25.5,0.3-31.3,0.1
		c33.7-5.4,51.3-20.1,63.6-41.1c8.3-14.3,10.7-27,7.9-37.2c4.8,5.8,7.2,11.8,8.2,19.3l47-25.4h-57.6c-6.2-11.3-20.2-18.1-40.4-18.1
		h-7.6l-5.8-57.6l7.5,11.5h102v39.4l13.4,35.3l-8.5,28.7l-0.5,0.5c-2.1,1.8-13.9,11-54.4,42.3l-4.7,3.7
		c-15.2,11.8-18.2,26-18.2,57.5v6.8l-50-20.2l-16.3-33.9c-2.1,0.1-4.2,0.2-6.3,0.2h-7.4l20.4,43.3l71.8,29.5v-26.2
		c0-14.8-1.2-35.3,13.9-47l5-3.9c42.3-32.7,52.3-40.5,54.6-42.5l0.7-0.6l2.9-3.3l10.5-35.5L353.6,140.5z M245.7,188.4
		c1.8,9.2-5.8,22.3-18.5,29.8c-10,5.9-22.1,6.3-32.6,6.3h-31.4l22.8-37.2l-11.9-9.6h47.4C235.9,177.7,244.2,180.5,245.7,188.4
		 M196.6,149.6h-32l-10.8,18.1H97.2l38.2,30.8l-14,23.6l-25.5-11.4l-12.2-32l-30.1-29.1h81.1v-128h58.5v66.5l32.4,13.7L196.6,149.6z
		"/>
	<polygon style="fill:#00843D;" points="196.6,149.6 164.7,149.6 153.8,167.8 97.2,167.8 135.4,198.5 121.4,222.1 95.8,210.7 
		83.6,178.7 53.5,149.6 134.6,149.6 134.6,21.6 193.1,21.6 193.1,88.1 225.5,101.8 	"/>
	<path style="fill:#A7A9AC;" d="M247.4,252l4.2,40.2l-20.9-39.5C235.8,252.7,241.6,252.6,247.4,252 M231.4,92l-13.7,57.6h19.5
		L231.4,92z M144.9,182.6l-47.7-14.9l38.2,30.8L144.9,182.6z M174.1,177.7h47.4c13.7,0,21.8,2.5,23.9,9.5l19.8-9.7
		c-5.4-12.5-20.8-13.9-30.4-13.9H178l-0.1-0.1l-45.2,75.8l30.6-15l22.8-37.2L174.1,177.7z M285.2,167.8l-20.1,9.8
		c1.3,3.4,3.2,11.6-1.8,23.7c-5.7,13.8-22.6,38.2-68.8,38.2h-62l-30.5,15h54.7l-7,1.9l-39.2,35.9l70.5-37.8h2.9
		c7.1,0,13.7-0.3,19.8-0.8l12.4-1.5c33.7-5.4,51.3-20.1,63.6-41.1c8.3-14.3,10.7-27,7.9-37.2C287.6,173.8,286.6,170.6,285.2,167.8
		 M292,180.4c2,3.9,3.2,8,3.8,12.7l47-25.4L292,180.4z"/>
	<path style="fill:#A7A9AC;" d="M367.7,177.5L357.2,213l-2.9,3.3l-0.7,0.6c-2.3,2-12.4,9.8-54.6,42.5l-5,3.9
		c-15.1,11.7-13.9,32.2-13.9,47v26.2l-71.8-29.6l9.7-9.7l50,20.2v-6.8c0-31.5,3-45.7,18.2-57.5l4.7-3.7
		c40.5-31.4,52.3-40.5,54.4-42.3l0.5-0.5l8.5-28.7l-13.4-35.3v-39.4l12.7-12.7v49.7L367.7,177.5z M193.1,21.6v66.5l12.7-8.4V8.9
		L193.1,21.6z M86.1,220.3l28.7,12.8l6.6-11l-25.5-11.4L86.1,220.3z M22,136.9l50.9,49.2l10.7-7.4l-30.1-29.1L22,136.9z"/>
</g>
</svg>
